<?xml version="1.0" standalone="no"?>
<!DOCTYPE svg PUBLIC "-//W3C//DTD SVG 20010904//EN"
 "http://www.w3.org/TR/2001/REC-SVG-20010904/DTD/svg10.dtd">
<svg version="1.0" xmlns="http://www.w3.org/2000/svg"
 width="360.000000pt" height="342.000000pt" viewBox="0 0 360.000000 342.000000"
 preserveAspectRatio="xMidYMid meet">
<metadata>
Created by potrace 1.16, written by Peter Selinger 2001-2019
</metadata>
<g transform="translate(0.000000,342.000000) scale(0.100000,-0.100000)"
fill="#000000" stroke="none">
<path d="M1531 3099 c-41 -31 -66 -42 -95 -44 -52 -3 -77 -13 -99 -42 -10 -12
-32 -32 -48 -44 l-31 -22 -29 22 c-16 12 -29 17 -29 11 0 -5 -7 -10 -15 -10
-19 0 -19 10 1 38 8 12 10 22 5 22 -6 0 -11 -4 -11 -9 0 -4 -13 -24 -30 -42
-16 -19 -30 -37 -30 -40 0 -4 -33 -33 -72 -65 -127 -101 -156 -136 -164 -202
-10 -85 -41 -201 -47 -177 -3 15 -5 16 -6 4 0 -9 -11 -19 -24 -23 -13 -3 -36
-17 -53 -31 -16 -14 -44 -28 -62 -31 -44 -8 -102 19 -103 49 -1 19 -2 18 -9
-5 -4 -15 -18 -44 -30 -63 -12 -20 -19 -39 -16 -43 11 -11 -95 -30 -134 -24
-19 3 -50 15 -68 28 -29 19 -43 21 -93 17 -36 -4 -59 -2 -59 4 0 5 -10 22 -23
36 -20 24 -30 27 -90 27 l-67 0 0 -265 c0 -185 3 -265 11 -265 6 0 22 -9 36
-20 20 -16 29 -17 40 -9 10 9 18 8 32 -5 16 -14 20 -45 12 -98 -1 -5 -13 -8
-27 -8 -41 0 -64 -18 -64 -50 0 -20 6 -31 20 -35 11 -3 20 -12 20 -18 1 -7 9
-2 18 9 37 44 92 38 92 -8 0 -14 -5 -18 -16 -14 -10 4 -18 -1 -21 -14 -5 -21
-15 -25 -78 -36 -54 -9 -75 -21 -75 -44 0 -25 14 -28 93 -22 44 3 71 1 76 -6
11 -18 165 -34 209 -23 21 6 104 11 183 11 149 0 340 13 359 25 6 4 18 1 27
-7 14 -12 15 -9 9 22 -20 109 -20 114 11 132 16 9 39 14 55 11 24 -5 27 -9 22
-30 -16 -63 -4 -153 20 -153 10 0 18 18 24 53 9 52 9 52 21 23 9 -22 9 -37 0
-63 -9 -29 -8 -36 5 -46 11 -8 19 -34 23 -71 l6 -59 -47 6 c-44 6 -46 5 -36
-12 5 -11 24 -30 41 -42 28 -20 30 -24 15 -34 -22 -17 -20 -51 4 -75 17 -17
50 -25 86 -21 6 1 19 -25 29 -56 9 -32 26 -73 36 -91 11 -19 17 -37 14 -41 -2
-5 4 -16 14 -25 11 -10 22 -28 25 -42 4 -13 10 -24 14 -24 5 0 17 -7 28 -15
16 -13 16 -14 2 -9 -10 3 -18 2 -18 -4 0 -9 29 -26 41 -24 3 1 5 -10 4 -23 -2
-17 1 -22 11 -18 8 3 14 -1 14 -11 0 -9 5 -16 11 -16 6 0 8 7 5 16 -3 9 -2 12
4 9 6 -4 9 -14 8 -23 -2 -10 3 -16 11 -14 19 4 32 -18 25 -42 -5 -14 -2 -18 9
-13 8 3 23 0 33 -7 11 -8 33 -17 51 -20 17 -4 44 -19 59 -33 52 -48 213 -68
210 -25 -1 11 11 18 38 23 22 3 44 13 50 21 6 8 22 20 35 27 45 25 116 83 126
104 9 20 126 137 136 137 3 0 3 -30 1 -67 -2 -38 3 -101 12 -143 11 -57 13
-89 6 -135 -6 -33 -14 -106 -19 -161 -6 -63 -17 -118 -30 -145 -33 -72 -78
-201 -85 -246 l-6 -43 661 0 c528 0 659 3 652 13 -6 6 -19 37 -29 67 -10 30
-21 57 -24 60 -4 3 -16 26 -28 52 -12 26 -38 59 -59 75 -21 15 -47 38 -58 50
-23 25 -94 65 -146 82 -22 7 -39 20 -42 31 -4 15 -15 20 -44 21 l-38 2 40 6
c49 7 34 20 -34 28 -36 4 -48 9 -44 19 3 8 0 14 -7 14 -6 0 -9 4 -6 9 7 11
-11 26 -41 35 -17 6 -23 3 -23 -9 0 -8 7 -18 15 -21 16 -7 21 -44 5 -44 -10 0
-28 29 -28 45 1 13 -44 36 -59 30 -7 -2 -13 2 -13 10 0 8 -6 12 -13 9 -7 -2
-24 0 -38 6 -20 9 -15 10 28 6 29 -3 55 -1 58 3 7 12 -102 59 -155 67 -25 3
-55 13 -67 20 -12 8 -29 14 -37 14 -12 0 -13 -6 -4 -32 6 -18 17 -40 24 -49 8
-8 14 -19 14 -23 0 -13 55 -57 93 -73 39 -16 45 -36 11 -40 -10 -1 -27 -3 -36
-5 -9 -2 -16 2 -15 7 1 6 6 9 10 7 5 -1 6 2 2 8 -3 6 -11 8 -16 5 -5 -4 -9 -1
-9 6 0 10 -3 10 -12 1 -8 -8 -8 -15 -1 -24 19 -24 12 -45 -14 -40 -24 5 -32
22 -10 22 6 0 -1 9 -18 20 -18 12 -38 17 -50 13 -17 -5 -18 -4 -6 10 7 9 16
16 19 15 4 0 13 0 21 1 19 1 9 58 -23 126 -14 29 -26 59 -26 65 0 6 -18 40
-40 76 -22 36 -40 72 -40 79 0 7 -7 18 -15 25 -20 17 -71 93 -79 117 -3 11 3
38 15 62 11 24 18 45 15 48 -3 3 -8 -2 -12 -11 -8 -21 -24 -21 -24 1 0 13 -3
14 -12 5 -7 -7 -17 -12 -23 -12 -5 0 -3 5 5 10 12 8 11 10 -8 10 -12 0 -21 3
-20 8 1 4 -4 26 -11 50 -9 31 -9 57 -1 99 13 72 13 116 0 108 -5 -3 -10 3 -10
13 0 26 -39 36 -61 16 -11 -10 -18 -11 -21 -4 -2 6 -19 12 -37 12 -23 1 -35 7
-38 19 -3 10 -11 15 -19 12 -10 -4 -14 3 -14 21 0 23 -4 26 -37 26 -20 0 -33
3 -29 8 4 4 26 7 49 7 31 0 42 4 45 17 5 27 -33 41 -66 24 -32 -16 -108 -14
-153 5 -22 8 -40 8 -79 -1 -43 -10 -48 -14 -40 -30 5 -10 23 -23 40 -29 27 -9
29 -12 19 -30 -7 -10 -19 -17 -26 -14 -8 3 -13 -3 -13 -16 0 -25 -28 -41 -74
-41 -19 0 -38 -5 -41 -11 -4 -6 -13 -8 -21 -5 -8 3 -23 -10 -38 -37 -22 -36
-24 -50 -19 -100 3 -31 9 -57 13 -57 4 0 5 -11 2 -25 -2 -14 -9 -25 -14 -25
-6 0 -8 -8 -6 -17 4 -16 -4 -18 -59 -21 -40 -2 -63 1 -63 7 0 6 -6 11 -13 11
-8 0 -14 6 -14 13 0 8 11 12 29 11 25 -2 27 0 21 23 -4 18 -2 24 6 19 6 -4 11
-1 11 8 0 24 -15 19 -30 -8 -10 -20 -18 -24 -40 -19 -15 3 -31 0 -34 -6 -13
-21 -28 -11 -22 13 4 16 0 30 -10 40 -8 9 -12 21 -8 27 4 8 3 9 -4 5 -6 -4 -9
-21 -6 -39 4 -28 3 -29 -6 -9 -6 15 -14 21 -22 16 -10 -6 -9 -3 0 9 15 18 7
41 -10 31 -8 -5 -9 -1 -3 12 12 29 13 74 2 74 -14 0 -36 32 -37 52 0 10 -11
20 -26 24 -14 4 -21 10 -15 13 5 4 6 12 2 20 -5 7 -6 22 -4 32 3 10 -3 31 -13
46 -14 23 -19 55 -22 170 -4 130 -3 145 18 190 12 26 27 59 33 73 6 14 18 33
25 42 9 11 11 24 7 35 -13 31 -13 57 3 93 10 24 11 35 3 38 -14 5 -15 32 -1
32 15 0 12 14 -9 36 -29 32 -41 60 -41 98 0 25 -4 36 -15 36 -11 0 -15 12 -15
49 0 39 5 56 25 77 14 15 25 33 25 40 0 8 1 14 3 14 1 0 17 4 35 9 29 9 31 8
22 -9 -9 -17 -8 -18 20 -3 26 12 38 13 80 2 27 -7 47 -16 45 -19 -3 -4 23 -10
57 -14 34 -3 65 -11 68 -16 17 -27 173 -35 205 -11 13 11 67 25 80 22 6 -2 7
1 3 5 -11 11 24 32 70 42 56 13 166 -24 203 -68 17 -20 29 -27 34 -21 9 16 24
4 36 -27 6 -16 13 -22 17 -15 8 12 62 -28 62 -47 0 -9 29 -15 53 -11 4 0 7 -5
7 -12 1 -7 6 -4 15 7 7 10 18 15 24 12 15 -10 31 -76 30 -122 -2 -46 14 -133
40 -229 29 -104 45 -321 32 -425 -6 -46 -11 -94 -10 -105 2 -29 22 65 21 97
-1 31 17 48 29 26 6 -11 21 -12 76 -6 147 16 191 25 207 41 10 9 21 17 26 17
5 0 15 3 23 6 9 3 25 -6 39 -21 35 -37 88 -44 120 -14 34 32 46 106 21 124
-21 16 -18 21 21 31 27 6 29 5 24 -19 -3 -15 0 -31 6 -35 19 -15 129 -41 171
-41 22 0 87 -2 145 -6 118 -7 195 6 210 35 6 11 10 127 10 274 0 252 0 256
-21 256 -11 0 -45 12 -75 26 -30 14 -64 24 -75 21 -10 -3 -22 -1 -25 4 -3 5 4
9 15 9 12 0 21 5 21 10 0 6 -11 10 -25 10 -18 0 -25 5 -25 20 0 11 5 20 10 20
6 0 10 3 10 8 0 8 -71 32 -95 32 -8 0 -15 5 -15 10 0 20 -37 9 -64 -19 -20
-21 -26 -35 -21 -50 5 -16 2 -21 -10 -21 -12 0 -16 -6 -12 -20 6 -23 -17 -45
-35 -33 -7 4 -37 15 -67 24 -49 14 -61 14 -108 0 -29 -8 -53 -19 -53 -24 0 -6
-8 -19 -17 -30 -17 -19 -17 -20 0 -14 11 4 16 3 12 -3 -13 -21 -105 1 -105 25
0 7 -7 18 -15 25 -8 7 -15 25 -15 41 0 15 -5 31 -11 34 -5 4 -8 19 -5 33 8 35
-2 47 -42 55 -33 7 -74 -6 -105 -32 -20 -17 -77 -24 -77 -10 0 5 5 9 11 9 6 0
3 7 -6 16 -18 19 -55 88 -55 105 0 6 -15 32 -33 58 -18 25 -46 70 -62 99 -22
41 -48 68 -110 113 -44 32 -95 71 -114 86 -18 16 -55 40 -82 55 -27 14 -61 36
-75 47 -15 12 -41 21 -60 21 -20 0 -44 9 -61 24 -41 35 -199 52 -272 30 -18
-5 -22 -4 -17 5 9 14 -41 5 -62 -12 -7 -5 -15 -8 -18 -5 -2 3 11 19 31 37 51
45 30 38 -34 -10z m-825 -934 c27 -23 81 -45 112 -45 6 0 12 -10 13 -22 0 -21
1 -21 8 -4 5 14 10 16 15 7 4 -6 5 -19 2 -27 -3 -9 2 -23 11 -32 15 -16 15
-17 0 -20 -22 -4 -21 -14 3 -42 11 -13 20 -30 20 -39 0 -14 -2 -14 -10 -1 -7
11 -10 7 -10 -17 0 -17 -5 -35 -10 -38 -31 -19 -127 -22 -144 -5 -15 15 -35
12 -57 -9 -17 -16 -18 -22 -8 -45 14 -30 24 -33 33 -10 10 25 36 -2 36 -37 0
-20 -6 -30 -22 -35 -13 -3 -30 -12 -38 -19 -13 -11 -96 -29 -110 -24 -3 2 -15
-3 -28 -10 -30 -16 -59 -6 -66 24 -4 14 -10 25 -15 25 -4 0 -25 15 -44 34
l-37 34 35 42 c39 47 42 63 19 109 -15 30 -15 34 1 51 9 10 48 35 86 55 39 20
73 44 77 54 29 71 78 89 128 46z m1387 -768 c32 -21 35 -37 8 -37 -11 0 -22
-4 -26 -9 -3 -5 -24 -7 -48 -4 -23 3 -61 4 -84 4 -33 -1 -43 2 -43 14 0 8 -4
15 -10 15 -5 0 -10 -4 -10 -10 0 -5 -7 -10 -15 -10 -8 0 -15 -5 -15 -11 0 -8
-4 -8 -15 1 -9 7 -26 9 -45 5 -47 -10 -28 19 23 35 23 8 45 16 49 19 4 3 51 6
106 6 77 0 104 -4 125 -18z m28 -98 c9 0 22 -11 29 -24 7 -13 18 -21 25 -18 8
2 18 -5 24 -16 13 -24 15 -84 2 -77 -5 3 -14 -1 -21 -9 -10 -13 -9 -15 11 -16
l24 -2 -24 -4 c-20 -4 -22 -9 -17 -34 7 -34 -3 -67 -14 -49 -8 14 -30 5 -30
-11 0 -6 4 -8 9 -4 5 3 12 1 15 -4 3 -5 -1 -11 -9 -15 -8 -3 -17 -1 -20 4 -7
11 -27 8 -65 -7 -26 -11 -57 -7 -66 8 -3 5 -16 6 -30 3 -18 -5 -24 -2 -24 10
0 14 -2 14 -20 -1 -11 -10 -20 -23 -20 -30 0 -21 -42 -15 -67 9 l-24 22 -6
-22 c-6 -25 -25 -30 -21 -6 2 10 -3 19 -11 22 -8 3 -11 0 -7 -6 9 -15 -14 -26
-27 -13 -9 9 -9 14 1 20 11 7 10 10 -3 15 -9 3 -21 4 -25 1 -12 -7 -1 46 12
63 16 19 -6 40 -25 24 -16 -14 -57 -4 -57 13 0 7 -6 15 -12 18 -10 3 -10 7 -1
19 7 8 10 17 7 20 -3 4 9 9 26 13 26 6 30 10 24 28 -3 12 -3 19 1 15 4 -4 17
-2 29 4 60 34 150 48 271 42 66 -3 127 -5 136 -5z"/>
<path d="M1899 1220 c-57 -3 -109 -8 -116 -13 -16 -10 -4 -47 17 -47 9 0 42
-8 73 -19 48 -15 60 -16 75 -5 11 7 43 23 73 34 30 12 56 23 58 25 9 10 -30
35 -52 32 -14 -1 -71 -4 -128 -7z"/>
<path d="M2071 2131 c-12 -12 -21 -16 -21 -11 0 15 -36 12 -50 -5 -7 -8 -18
-15 -25 -15 -7 0 -16 -7 -19 -16 -4 -10 -12 -14 -23 -10 -10 4 -14 4 -10 0 4
-4 2 -13 -3 -19 -8 -9 -4 -21 14 -42 15 -17 27 -47 30 -73 6 -46 16 -67 16
-32 0 25 18 30 26 7 3 -8 22 -18 42 -21 21 -4 31 -9 25 -11 -25 -9 -12 -29 32
-51 38 -18 52 -20 86 -13 68 15 67 24 -6 42 -28 7 -54 17 -60 22 -6 6 0 7 17
3 35 -8 79 9 85 34 3 11 11 20 18 20 14 0 37 -24 30 -32 -3 -2 9 -2 26 0 l30
4 -22 25 c-13 13 -47 31 -76 39 -29 8 -53 20 -53 26 0 5 7 7 16 4 9 -3 26 -6
39 -6 14 0 40 -14 60 -31 40 -35 51 -34 34 4 -11 24 -38 40 -84 50 -16 4 -15
5 5 6 21 1 22 3 10 12 -12 9 -11 10 5 4 11 -3 24 -7 29 -8 5 -1 18 -10 28 -19
23 -23 42 -23 64 -1 15 16 14 19 -17 45 -19 16 -47 40 -63 54 -16 13 -31 22
-33 20 -3 -3 -16 0 -30 5 -21 8 -24 7 -19 -6 6 -17 2 -19 -22 -6 -9 5 -38 12
-64 15 -40 6 -50 4 -67 -13z"/>
<path d="M1560 2107 c-30 -5 -72 -10 -92 -10 -21 -1 -48 -11 -64 -24 -16 -13
-32 -23 -38 -23 -10 0 -96 -77 -91 -82 2 -2 5 -15 7 -30 5 -35 17 -46 28 -28
7 11 10 11 11 3 1 -7 2 -18 3 -24 2 -17 38 -39 64 -39 14 0 32 -11 43 -24 43
-55 148 -58 222 -8 57 38 77 45 77 27 0 -13 4 -13 36 0 44 18 65 43 58 68 -3
9 -1 17 4 17 11 0 34 98 26 111 -3 5 -10 9 -16 9 -6 0 -19 9 -29 21 -10 11
-22 18 -28 15 -5 -4 -12 -2 -16 3 -5 10 -62 21 -121 25 -16 1 -54 -3 -84 -7z"/>
<path d="M1183 1052 c-27 -37 -52 -128 -47 -177 2 -22 1 -32 -2 -22 -3 9 -10
17 -15 17 -5 0 -12 -8 -15 -17 -3 -10 -12 -30 -20 -45 -9 -17 -13 -42 -9 -70
3 -24 3 -37 -1 -31 -4 10 -9 9 -21 -2 -33 -34 -102 -75 -108 -65 -4 7 -27 -1
-61 -21 -60 -34 -121 -59 -224 -92 -36 -11 -76 -28 -90 -38 -14 -10 -56 -30
-93 -44 -66 -25 -117 -59 -105 -71 4 -3 15 -1 26 5 12 6 31 11 44 11 13 0 29
5 34 10 6 6 27 11 48 13 34 2 39 -1 42 -22 4 -24 4 -24 -57 -17 -49 5 -60 3
-56 -8 4 -9 -7 -17 -32 -25 -46 -13 -52 -13 -70 -2 -13 8 -13 12 0 27 13 16
12 16 -10 5 -17 -9 -20 -16 -12 -24 20 -20 12 -32 -38 -55 -60 -27 -70 -28
-40 -2 13 10 19 19 12 20 -20 0 -63 -22 -63 -33 0 -6 -2 -8 -5 -5 -7 6 -65
-49 -64 -60 3 -21 -5 -31 -41 -47 -22 -10 -40 -25 -40 -33 0 -12 -2 -12 -17
-1 -9 8 -14 9 -10 3 4 -7 0 -14 -8 -18 -18 -6 -21 -86 -4 -86 6 0 9 -7 5 -15
-5 -13 110 -15 995 -15 l1000 0 -28 51 c-39 72 -98 136 -133 144 -16 3 -39 14
-52 24 -39 29 -100 62 -106 56 -3 -3 -13 9 -23 25 -11 17 -27 30 -38 30 -11 0
-30 15 -43 33 -30 42 -79 83 -95 79 -8 -2 -10 3 -6 14 5 13 2 16 -9 11 -10 -3
-19 0 -22 9 -3 9 -1 12 4 9 6 -3 10 -2 10 4 0 5 -13 15 -30 23 -28 12 -34 22
-33 56 1 6 -2 12 -6 12 -4 0 -8 11 -9 25 -1 14 -8 38 -16 53 -7 15 -11 33 -9
39 3 7 -15 43 -40 80 -24 38 -50 79 -57 93 -20 38 -40 121 -40 168 0 50 -17
55 -47 14z"/>
</g>
</svg>
